<mxfile host="app.diagrams.net" modified="2023-11-07T02:29:05.798Z" agent="Mozilla/5.0 (Windows NT 10.0; Win64; x64) AppleWebKit/537.36 (KHTML, like Gecko) Chrome/119.0.0.0 Safari/537.36 Edg/119.0.0.0" version="22.0.8" etag="qmK6IPy2OB0X__0XsK0R" type="github">
  <diagram name="第 1 页" id="l26vpQENEzwYTrjuAnWP">
    <mxGraphModel>
      <root>
        <mxCell id="0" />
        <mxCell id="1" parent="0" />
      </root>
    </mxGraphModel>
  </diagram>
</mxfile>
